<svg width="56" height="56" viewBox="0 0 56 56" fill="none" xmlns="http://www.w3.org/2000/svg">
<path d="M36.3334 18.6666C36.3334 23.269 32.6025 26.9999 28.0001 26.9999C23.3977 26.9999 19.6667 23.269 19.6667 18.6666C19.6667 14.0642 23.3977 10.3333 28.0001 10.3333C32.6025 10.3333 36.3334 14.0642 36.3334 18.6666Z" stroke="#33363F" stroke-width="2" stroke-linecap="round"/>
<path d="M34.4706 18C35.2662 16.6219 36.5768 15.6163 38.1138 15.2044C39.6509 14.7926 41.2886 15.0082 42.6667 15.8038C44.0449 16.5995 45.0504 17.91 45.4623 19.4471C45.8742 20.9842 45.6586 22.6219 44.8629 24C44.0673 25.3781 42.7567 26.3837 41.2197 26.7956C39.6826 27.2074 38.0449 26.9918 36.6667 26.1962C35.2886 25.4005 34.2831 24.09 33.8712 22.5529C33.4593 21.0158 33.6749 19.3781 34.4706 18L34.4706 18Z" stroke="#33363F" stroke-width="2"/>
<path d="M11.1371 18C11.9327 16.6219 13.2433 15.6163 14.7803 15.2044C16.3174 14.7926 17.9551 15.0082 19.3333 15.8038C20.7114 16.5995 21.7169 17.91 22.1288 19.4471C22.5407 20.9842 22.3251 22.6219 21.5294 24C20.7338 25.3781 19.4232 26.3837 17.8862 26.7956C16.3491 27.2074 14.7114 26.9918 13.3333 26.1962C11.9551 25.4005 10.9496 24.09 10.5377 22.5529C10.1258 21.0158 10.3414 19.3781 11.1371 18L11.1371 18Z" stroke="#33363F" stroke-width="2"/>
<path d="M39.3904 42.0001L38.4101 42.1975L38.5717 43.0001H39.3904V42.0001ZM48.7801 40.8911L47.8088 41.1289L47.8088 41.1289L48.7801 40.8911ZM34.4885 34.3247L33.8837 33.5283L32.7271 34.4068L33.9604 35.1738L34.4885 34.3247ZM47.8672 41.0001H39.3904V43.0001H47.8672V41.0001ZM47.8088 41.1289C47.8066 41.1198 47.8047 41.0996 47.8107 41.0749C47.8163 41.0518 47.8264 41.0343 47.836 41.0228C47.8554 40.9997 47.8723 41.0001 47.8672 41.0001V43.0001C49.0481 43.0001 50.0648 41.933 49.7515 40.6533L47.8088 41.1289ZM39.6666 33.6667C42.5209 33.6667 44.3767 34.9269 45.6203 36.4772C46.8915 38.0619 47.5221 39.9579 47.8088 41.1289L49.7515 40.6533C49.4326 39.3512 48.7119 37.135 47.1804 35.2258C45.6213 33.2822 43.2231 31.6667 39.6666 31.6667V33.6667ZM35.0934 35.121C36.2187 34.2663 37.6953 33.6667 39.6666 33.6667V31.6667C37.2515 31.6667 35.3513 32.4136 33.8837 33.5283L35.0934 35.121ZM33.9604 35.1738C36.8446 36.9676 37.9744 40.0343 38.4101 42.1975L40.3707 41.8026C39.8913 39.4223 38.5902 35.698 35.0167 33.4755L33.9604 35.1738Z" fill="#33363F"/>
<path d="M21.5115 34.3246L22.0396 35.1738L23.2729 34.4068L22.1163 33.5283L21.5115 34.3246ZM7.21987 40.8911L6.24856 40.6533L6.24856 40.6533L7.21987 40.8911ZM16.6096 42.0001V43.0001H17.4282L17.5899 42.1975L16.6096 42.0001ZM16.3334 33.6667C18.3047 33.6667 19.7813 34.2662 20.9066 35.121L22.1163 33.5283C20.6487 32.4135 18.7486 31.6667 16.3334 31.6667V33.6667ZM8.19118 41.1289C8.4779 39.9579 9.10854 38.0619 10.3798 36.4772C11.6234 34.9269 13.4792 33.6667 16.3334 33.6667V31.6667C12.777 31.6667 10.3788 33.2822 8.81967 35.2258C7.28817 37.1349 6.56737 39.3512 6.24856 40.6533L8.19118 41.1289ZM8.13285 41.0001C8.12771 41.0001 8.14465 40.9997 8.16396 41.0228C8.17359 41.0343 8.18375 41.0518 8.18935 41.0749C8.19535 41.0996 8.19343 41.1198 8.19118 41.1289L6.24856 40.6533C5.93525 41.933 6.95189 43.0001 8.13285 43.0001V41.0001ZM16.6096 41.0001H8.13285V43.0001H16.6096V41.0001ZM17.5899 42.1975C18.0255 40.0343 19.1554 36.9676 22.0396 35.1738L20.9834 33.4755C17.4098 35.698 16.1087 39.4223 15.6292 41.8026L17.5899 42.1975Z" fill="#33363F"/>
<path d="M27.9999 32.6667C37.5721 32.6667 39.2906 40.5205 39.5991 43.3404C39.6591 43.8894 39.2189 44.3334 38.6666 44.3334H17.3333C16.781 44.3334 16.3407 43.8894 16.4008 43.3404C16.7093 40.5205 18.4277 32.6667 27.9999 32.6667Z" stroke="#33363F" stroke-width="2" stroke-linecap="round"/>
</svg>
