<svg width="56" height="56" viewBox="0 0 56 56" fill="none" xmlns="http://www.w3.org/2000/svg">
<path d="M30.7338 7H21.0001C16.6003 7 14.4004 7 13.0336 8.36684C11.6667 9.73367 11.6667 11.9336 11.6667 16.3333V39.6667C11.6667 44.0664 11.6667 46.2663 13.0336 47.6332C14.4004 49 16.6003 49 21.0001 49H35.0001C39.3999 49 41.5997 49 42.9666 47.6332C44.3334 46.2663 44.3334 44.0664 44.3334 39.6667V20.5997C44.3334 19.6459 44.3334 19.169 44.1558 18.7402C43.9782 18.3114 43.641 17.9742 42.9666 17.2998L34.0336 8.36684C33.3592 7.69243 33.022 7.35523 32.5932 7.17761C32.1644 7 31.6875 7 30.7338 7Z" stroke="#33363F" stroke-width="2"/>
<path d="M21 30.3333L35 30.3333" stroke="#33363F" stroke-width="2" stroke-linecap="round"/>
<path d="M21 39.6667L30.3333 39.6667" stroke="#33363F" stroke-width="2" stroke-linecap="round"/>
<path d="M30.3333 7V16.3333C30.3333 18.5332 30.3333 19.6332 31.0167 20.3166C31.7001 21 32.8 21 34.9999 21H44.3333" stroke="#33363F" stroke-width="2"/>
</svg>
